<svg xmlns="http://www.w3.org/2000/svg" xmlns:xlink="http://www.w3.org/1999/xlink" width="22" height="21.996" viewBox="0 0 22 21.996">
  <defs>
    <clipPath id="clip-path">
      <path id="Clip_2" data-name="Clip 2" d="M0,0H12.878V3.753H0Z" fill="none"/>
    </clipPath>
    <clipPath id="clip-path-2">
      <path id="Clip_6" data-name="Clip 6" d="M0,0H18.244V18.189H0Z" transform="translate(0 0)" fill="none"/>
    </clipPath>
  </defs>
  <g id="_001-hammer" data-name="001-hammer" transform="translate(0 0)">
    <g id="Group_3" data-name="Group 3" transform="translate(0 18.244)">
      <path id="Clip_2-2" data-name="Clip 2" d="M0,0H12.878V3.753H0Z" fill="none"/>
      <g id="Group_3-2" data-name="Group 3" clip-path="url(#clip-path)">
        <path id="Fill_1" data-name="Fill 1" d="M11.5,3.756H1.38A1.4,1.4,0,0,1,0,2.347V1.409A1.4,1.4,0,0,1,1.38,0H11.5a1.4,1.4,0,0,1,1.38,1.409v.939A1.4,1.4,0,0,1,11.5,3.756ZM1.38.939a.465.465,0,0,0-.46.47v.939a.465.465,0,0,0,.46.47H11.5a.465.465,0,0,0,.46-.47V1.409a.465.465,0,0,0-.46-.47Z"/>
      </g>
    </g>
    <path id="Fill_4" data-name="Fill 4" d="M4.114,9.659a.814.814,0,0,1-.6-.236L.235,6.143C-.337,5.57.291,4.58.5,4.254A12.842,12.842,0,0,1,2.2,2.206,12.822,12.822,0,0,1,4.249.5a2.71,2.71,0,0,1,1.3-.5.812.812,0,0,1,.6.235l3.28,3.28c.576.576-.057,1.569-.265,1.9A12.8,12.8,0,0,1,7.451,7.459a12.8,12.8,0,0,1-2.046,1.7A2.707,2.707,0,0,1,4.114,9.659ZM5.484.9A7.909,7.909,0,0,0,2.865,2.863C1.434,4.292.9,5.319.936,5.55L4.177,8.762A7.881,7.881,0,0,0,6.8,6.8,6.651,6.651,0,0,0,8.726,4.137L5.484.9Z" transform="translate(5.902 2.146)"/>
    <g id="Group_9" data-name="Group 9" transform="translate(3.756)">
      <path id="Clip_6-2" data-name="Clip 6" d="M0,0H18.244V18.189H0Z" transform="translate(0 0)" fill="none"/>
      <g id="Group_9-2" data-name="Group 9" clip-path="url(#clip-path-2)">
        <path id="Fill_5" data-name="Fill 5" d="M4.564,6.544a1.356,1.356,0,0,1-.964-.4L.4,2.955a1.353,1.353,0,0,1,0-1.919L1.04.4A1.367,1.367,0,0,1,2.966.4l3.2,3.192a1.357,1.357,0,0,1,0,1.92l-.641.638A1.358,1.358,0,0,1,4.564,6.544ZM2,.909a.453.453,0,0,0-.319.131l-.639.638a.447.447,0,0,0,0,.634L4.246,5.5a.451.451,0,0,0,.636,0l.64-.638a.447.447,0,0,0,0-.634L2.32,1.04A.452.452,0,0,0,2,.909Z" transform="translate(0 7.022)"/>
        <path id="Fill_7" data-name="Fill 7" d="M4.564,6.543a1.356,1.356,0,0,1-.964-.4L.4,2.954a1.356,1.356,0,0,1,0-1.919L1.039.4A1.367,1.367,0,0,1,2.965.4l3.2,3.192a1.356,1.356,0,0,1,0,1.92l-.64.638A1.353,1.353,0,0,1,4.564,6.543ZM2,.91a.449.449,0,0,0-.318.131l-.641.639a.448.448,0,0,0,0,.633L4.245,5.5a.453.453,0,0,0,.635,0l.64-.637a.447.447,0,0,0,0-.634L2.319,1.04A.446.446,0,0,0,2,.91Z" transform="translate(7.044 0)"/>
        <path id="Fill_8" data-name="Fill 8" d="M8.507,10.215a2.647,2.647,0,0,1-1.771-.941C6.106,8.646,2.405,4.586.108,1.886A.455.455,0,0,1,.8,1.3c2.4,2.815,6.032,6.79,6.576,7.332,1.027,1.026,1.428.626,1.666.39a.8.8,0,0,0,.281-.472c.031-.31-.2-.721-.671-1.19C8.118,6.82,4.137,3.2,1.3.8a.455.455,0,1,1,.59-.693C4.611,2.408,8.679,6.093,9.3,6.716a2.491,2.491,0,0,1,.934,1.923,1.659,1.659,0,0,1-.544,1.024A1.668,1.668,0,0,1,8.507,10.215Z" transform="translate(8.001 7.975)"/>
      </g>
    </g>
  </g>
</svg>
