<svg id="_036-facebook" data-name="036-facebook" xmlns="http://www.w3.org/2000/svg" width="24.194" height="24.194" viewBox="0 0 24.194 24.194">
  <path id="Path" d="M20.933,0H3.26A3.26,3.26,0,0,0,0,3.26V20.933a3.26,3.26,0,0,0,3.26,3.26h8.716l.015-8.645H9.745a.53.53,0,0,1-.53-.528L9.2,12.233a.53.53,0,0,1,.53-.532h2.242V9.009c0-3.125,1.909-4.826,4.7-4.826H18.96a.53.53,0,0,1,.53.53v2.35a.53.53,0,0,1-.53.53h-1.4c-1.516,0-1.81.72-1.81,1.778V11.7h3.331a.53.53,0,0,1,.526.592l-.33,2.787a.53.53,0,0,1-.526.468H15.762l-.015,8.645h5.186a3.26,3.26,0,0,0,3.26-3.26V3.26A3.26,3.26,0,0,0,20.933,0Z" transform="translate(0 0)" fill="#222"/>
</svg>
