<svg xmlns="http://www.w3.org/2000/svg" width="30.556" height="25" viewBox="0 0 30.556 25">
  <path id="Path" d="M30.07,2.908a12.239,12.239,0,0,1-2.107.7A6.448,6.448,0,0,0,29.7.891h0a.343.343,0,0,0-.5-.395h0a12.27,12.27,0,0,1-3.221,1.309.834.834,0,0,1-.2.025.862.862,0,0,1-.564-.212A6.651,6.651,0,0,0,20.848,0a7.151,7.151,0,0,0-2.087.317,6.321,6.321,0,0,0-4.3,4.523A6.8,6.8,0,0,0,14.3,7.226a.23.23,0,0,1-.059.182.246.246,0,0,1-.182.081h-.023A17.359,17.359,0,0,1,2.167,1.249h0a.348.348,0,0,0-.565.043h0A6.406,6.406,0,0,0,2.674,9.168a5.963,5.963,0,0,1-1.5-.572h0a.344.344,0,0,0-.512.292h0a6.481,6.481,0,0,0,3.848,5.977l-.141,0a6.023,6.023,0,0,1-1.11-.1h0a.341.341,0,0,0-.393.436h0a6.571,6.571,0,0,0,5.215,4.417A12.3,12.3,0,0,1,1.271,21.65H.509a.5.5,0,0,0-.493.374.51.51,0,0,0,.25.567A18.312,18.312,0,0,0,9.351,25a18.588,18.588,0,0,0,7.764-1.62A17.124,17.124,0,0,0,22.8,19.193a18.3,18.3,0,0,0,3.478-5.73,17.839,17.839,0,0,0,1.182-6.272v-.1a1.1,1.1,0,0,1,.419-.858A12.886,12.886,0,0,0,30.5,3.406h0a.341.341,0,0,0-.426-.5Z" fill="#222"/>
</svg>
