<svg xmlns="http://www.w3.org/2000/svg" width="24.194" height="24.194" viewBox="0 0 24.194 24.194">
  <g id="_029-instagram" data-name="029-instagram" transform="translate(-0.698 -0.768)">
    <path id="Shape" d="M7.207,24.194A7.216,7.216,0,0,1,0,16.987V7.207A7.215,7.215,0,0,1,7.207,0h9.779a7.216,7.216,0,0,1,7.207,7.207v9.779a7.216,7.216,0,0,1-7.207,7.207Z" transform="translate(0.698 0.768)" fill="#222"/>
    <path id="Shape-2" data-name="Shape" d="M0,6.048A6.048,6.048,0,1,1,6.048,12.1,6.055,6.055,0,0,1,0,6.048Z" transform="translate(6.343 7.22)" fill="#222"/>
    <circle id="Oval" cx="1.613" cy="1.613" r="1.613" transform="translate(17.634 5.607)" fill="#222"/>
  </g>
</svg>
