<svg xmlns="http://www.w3.org/2000/svg" width="24.194" height="24.194" viewBox="0 0 24.194 24.194">
  <g id="_021-pinterest" data-name="021-pinterest" transform="translate(-0.58 -0.353)">
    <path id="Path" d="M24.188,12.451A12.1,12.1,0,1,0,6.813,22.981a.342.342,0,0,0,.49-.32,9.094,9.094,0,0,1,.152-2.279c.153-.659.755-3.205,1.15-4.878a5.981,5.981,0,0,0,.061-2.483,5.08,5.08,0,0,1-.088-.939c0-1.788,1.036-3.123,2.327-3.123a1.615,1.615,0,0,1,1.627,1.811,25.9,25.9,0,0,1-1.065,4.281,1.867,1.867,0,0,0,1.9,2.324c2.285,0,4.042-2.41,4.042-5.888a5.076,5.076,0,0,0-5.371-5.231,5.566,5.566,0,0,0-5.806,5.58,5,5,0,0,0,.957,2.934.385.385,0,0,1,.089.369c-.1.406-.315,1.28-.357,1.458-.056.235-.186.285-.43.172-1.606-.748-2.61-3.1-2.61-4.981,0-4.056,2.947-7.781,8.5-7.781,4.46,0,7.927,3.178,7.927,7.426,0,4.431-2.794,8-6.672,8a3.785,3.785,0,0,1-2.576-.987.321.321,0,0,0-.538.145c-.2.77-.529,2.016-.634,2.422a11.176,11.176,0,0,1-.99,2.318.342.342,0,0,0,.218.494,12.117,12.117,0,0,0,3.1.37A12.3,12.3,0,0,0,24.188,12.451Z" transform="translate(0.58 0.353)" fill="#222"/>
  </g>
</svg>
